<?xml version="1.0" encoding="UTF-8"?>
<svg width="752pt" height="752pt" version="1.1" viewBox="0 0 752 752" xmlns="http://www.w3.org/2000/svg">
 <g fill="#fff">
  <path d="m429.52 487.29c-15.152 10.418-33.625 16.574-53.516 16.574s-37.887-6.1562-53.043-16.574c-26.992 9.4727-45.938 35.047-45.938 64.879v42.621c0 3.3164 2.8398 6.1562 6.1562 6.1562h186.12c3.3164 0 6.1562-2.8398 6.1562-6.1562v-42.621c-0.46875-29.832-19.414-55.406-45.934-64.879z"/>
  <path d="m435.67 410.1c0 32.957-26.715 59.672-59.672 59.672-32.953 0-59.668-26.715-59.668-59.672 0-32.953 26.715-59.668 59.668-59.668 32.957 0 59.672 26.715 59.672 59.668"/>
  <path d="m376 275.6c34.57 0 62.512-27.941 62.512-62.512 0-34.57-27.941-62.512-62.512-62.512s-62.512 27.941-62.512 62.512c0 34.57 27.941 62.512 62.512 62.512zm-9.4688-94.715c0-5.2109 4.2617-9.4727 9.4727-9.4727 5.2109 0 9.4727 4.2617 9.4727 9.4727v23.207h16.102c5.2109 0 9.4727 4.2617 9.4727 9.4727 0 5.2109-4.2617 9.4727-9.4727 9.4727l-25.578-0.003906c-5.2109 0-9.4727-4.2617-9.4727-9.4727z"/>
  <path d="m277.02 416.73c5.6836 0 9.9453-4.2617 9.9453-9.9453s-4.2617-9.9453-9.9453-9.9453h-42.621c-4.2617-12.785-16.102-22.258-30.781-22.258-17.996 0-32.203 14.68-32.203 32.203 0 17.996 14.68 32.203 32.203 32.203 14.207 0 26.52-9.4727 30.781-22.258z"/>
  <path d="m438.52 344.27c1.8945 1.8945 4.7344 2.8398 7.1055 2.8398 2.3672 0 5.2109-0.94531 7.1055-2.8398l30.781-30.781c4.2617 2.3672 9.4727 3.7891 14.68 3.7891 17.996 0 32.203-14.68 32.203-32.203s-14.68-32.203-32.203-32.203c-17.996 0-32.203 14.68-32.203 32.203 0 5.2109 1.4219 9.9453 3.7891 14.68l-30.781 30.781c-4.7422 3.7891-4.7422 9.9453-0.47656 13.734z"/>
  <path d="m548.39 374.58c-14.207 0-26.52 9.4727-30.781 22.258h-42.621c-5.6836 0-9.9453 4.2617-9.9453 9.9453s4.2617 9.9453 9.9453 9.9453h42.621c4.2617 12.785 16.102 22.258 30.781 22.258 17.996 0 32.203-14.68 32.203-32.203 0-17.523-14.684-32.203-32.203-32.203z"/>
  <path d="m254.29 317.28c5.2109 0 10.418-1.4219 14.68-3.7891l30.781 30.781c1.8945 1.8945 4.2617 2.8398 7.1055 2.8398 2.3672 0 5.2109-0.94531 7.1055-2.8398 3.7891-3.7891 3.7891-10.418 0-14.207l-30.781-30.781c2.3672-4.2617 3.7891-9.4727 3.7891-14.68 0-17.996-14.68-32.203-32.203-32.203-17.523 0-32.203 14.68-32.203 32.203-0.003906 17.52 13.73 32.676 31.727 32.676z"/>
 </g>
</svg>
